#!OML:ASF X:\für Bonn\!DataBase\2005_08_10_Bjorn_Final\c3d\bjorn.ASF
:FULLY-SPECIFIED
:DEGREES
155
root -20.0631 19.1931 -0.390497 -169.998 -84.9404 -196.302
lowerback 7.93315 2.08444 3.47762
upperback 19.0502 0.835481 1.22122
thorax 17.1138 0.100153 -0.676414
lowerneck 0.668522 -4.34164 5.9757
upperneck 12.9734 -6.32457 0.315263
head 3.94926 -2.91969 -1.12941
rclavicle -1.63003e-014 1.11319e-014
rhumerus -17.973 12.6617 -79.8686
rradius 90.0968
rwrist -11.281
rhand -13.9953 7.55657
rfingers 7.12502
rthumb 12.1337 -22.0716
lclavicle -1.63003e-014 1.11319e-014
lhumerus -13.5356 -6.14625 90.7529
lradius 23.9781
lwrist -46.3592
lhand -28.9947 -7.75891
lfingers 7.12502
lthumb -2.34663 22.2079
rfemur -5.70546 -4.75543 14.2926
rtibia 29.4597
rfoot -11.7699 17.3194
rtoes 2.72779
lfemur -3.43409 8.79378 -17.5439
ltibia 26.8141
lfoot -11.07 -2.94821
ltoes -7.99629
156
root -20.0103 19.1844 -0.380508 -169.903 -84.5731 -196.603
lowerback 8.85357 2.12626 3.96571
upperback 19.4409 0.784867 1.36714
thorax 17.098 0.0959961 -0.79814
lowerneck 1.30437 -4.44069 6.37888
upperneck 11.7852 -6.3206 0.102187
head 3.38837 -2.9339 -1.21613
rclavicle -4.21423e-014 -1.35174e-014
rhumerus -16.7767 12.4829 -79.8595
rradius 87.455
rwrist -11.2692
rhand -14.1812 7.7444
rfingers 7.12502
rthumb 11.9543 -21.8943
lclavicle -4.21423e-014 -1.35174e-014
lhumerus -13.1559 -6.52395 90.8992
lradius 24.0862
lwrist -46.2215
lhand -29.8201 -8.46696
lfingers 7.12502
lthumb -3.14368 21.4896
rfemur -5.87385 -4.5135 14.1738
rtibia 29.7264
rfoot -11.7099 17.36
rtoes 2.73362
lfemur -3.44847 8.68788 -17.7173
ltibia 26.9943
lfoot -11.0866 -2.52365
ltoes -7.89033
157
root -19.9594 19.1757 -0.368861 -169.552 -84.235 -197.138
lowerback 9.75991 2.16071 4.48194
upperback 19.8115 0.736149 1.49297
thorax 17.0749 0.100722 -0.956117
lowerneck 2.03593 -4.55443 6.7801
upperneck 10.549 -6.3352 -0.0330762
head 2.8108 -2.95785 -1.27153
rclavicle -2.38542e-015 0
rhumerus -15.6174 12.2546 -79.8745
rradius 84.9226
rwrist -11.2141
rhand -14.4974 8.00732
rfingers 7.12502
rthumb 11.6495 -21.6488
lclavicle -2.38542e-015 0
lhumerus -12.8373 -6.97706 91.0318
lradius 24.2403
lwrist -45.8743
lhand -30.5097 -9.02498
lfingers 7.12502
lthumb -3.80964 20.9207
rfemur -6.0578 -4.36844 14.0158
rtibia 29.9931
rfoot -11.6067 17.484
rtoes 2.87378
lfemur -3.49008 8.63963 -17.9111
ltibia 27.1748
lfoot -11.0851 -2.15009
ltoes -7.95997
158
root -19.908 19.1685 -0.356497 -169.201 -83.8815 -197.605
lowerback 10.6088 2.198 5.00611
upperback 20.1784 0.695833 1.61027
thorax 17.0943 0.112855 -1.12535
lowerneck 2.73985 -4.67726 7.16426
upperneck 9.28603 -6.36302 -0.136174
head 2.2456 -2.98969 -1.3136
rclavicle -9.54166e-015 5.56597e-015
rhumerus -14.3614 11.9708 -79.8848
rradius 82.4891
rwrist -11.2684
rhand -14.7962 8.38865
rfingers 7.12502
rthumb 11.3613 -21.2836
lclavicle -9.54166e-015 5.56597e-015
lhumerus -12.4712 -7.44742 91.1351
lradius 24.4113
lwrist -45.4735
lhand -30.9643 -9.33486
lfingers 7.12502
lthumb -4.24867 20.6025
rfemur -6.31649 -4.2123 13.8609
rtibia 30.2574
rfoot -11.5194 17.591
rtoes 2.89379
lfemur -3.59622 8.60306 -18.1163
ltibia 27.3418
lfoot -11.0918 -1.80654
ltoes -7.8421
159
root -19.8565 19.162 -0.342635 -168.518 -83.5492 -198.341
lowerback 11.4152 2.23175 5.54624
upperback 20.5173 0.664773 1.70506
thorax 17.1124 0.137657 -1.32641
lowerneck 3.52412 -4.82034 7.60499
upperneck 7.94262 -6.40721 -0.199451
head 1.65364 -3.03152 -1.3486
rclavicle 1.11319e-014 1.11319e-014
rhumerus -13.1206 11.6074 -79.8888
rradius 80.2247
rwrist -11.3404
rhand -15.0598 8.79537
rfingers 7.12502
rthumb 11.1071 -20.8907
lclavicle 1.11319e-014 1.11319e-014
lhumerus -12.15 -7.87663 91.208
lradius 24.6174
lwrist -45.1718
lhand -31.2992 -9.46487
lfingers 7.12502
lthumb -4.57203 20.4658
rfemur -6.63782 -4.12085 13.6637
rtibia 30.5109
rfoot -11.3735 17.7416
rtoes 3.19831
lfemur -3.77692 8.56668 -18.3662
ltibia 27.5041
lfoot -11.064 -1.46726
ltoes -7.6491
